<?xml version="1.0" encoding="UTF-8"?>
<svg width="34px" height="27px" viewBox="0 0 34 27" version="1.1" xmlns="http://www.w3.org/2000/svg" xmlns:xlink="http://www.w3.org/1999/xlink">
    <!-- Generator: Sketch 42 (36781) - http://www.bohemiancoding.com/sketch -->
    <title>hologram</title>
    <desc>Created with Sketch.</desc>
    <defs>
        <linearGradient x1="0%" y1="0%" x2="100%" y2="100%" id="linearGradient-1">
            <stop stop-color="#F2CFF2" offset="0%"></stop>
            <stop stop-color="#CAD9EE" offset="30.7592773%"></stop>
            <stop stop-color="#D9F6FF" offset="52.2021484%"></stop>
            <stop stop-color="#FDFFEE" offset="73.9404297%"></stop>
            <stop stop-color="#FFDEE7" offset="100%"></stop>
        </linearGradient>
        <rect id="path-2" x="0" y="0" width="33.147284" height="26.514505" rx="3.99999976"></rect>
        <rect id="path-4" x="1.32589136" y="1.32572525" width="30.4955012" height="23.8630545" rx="3.19999981"></rect>
        <mask id="mask-5" maskContentUnits="userSpaceOnUse" maskUnits="objectBoundingBox" x="0" y="0" width="30.4955012" height="23.8630545" fill="white">
            <use xlink:href="#path-4"></use>
        </mask>
    </defs>
    <g id="Page-1" stroke="none" stroke-width="1" fill="none" fill-rule="evenodd">
        <g id="Credit/Debit-Card" transform="translate(-41.000000, -43.000000)">
            <g id="Front" transform="translate(29.000000, 30.000000)">
                <g id="hologram" transform="translate(12.559399, 13.257253)">
                    <mask id="mask-3" fill="white">
                        <use xlink:href="#path-2"></use>
                    </mask>
                    <use id="hologram-bg" fill="url(#linearGradient-1)" xlink:href="#path-2"></use>
                    <path d="M-6.62945679,1.31754176 L45.7514364,0.662862626 L46.4061975,0.671046115 L-5.97469563,1.32572525 L-6.62945679,1.31754176 L-6.62945679,1.31754176 Z M-6.62945679,-0.00818348921 L45.7514364,-0.662862626 L46.4061975,-0.654679137 L-5.97469563,7.10542736e-14 L-6.62945679,-0.00818348921 L-6.62945679,-0.00818348921 Z M-6.62945679,-1.33390874 L45.7514364,-1.98858788 L46.4061975,-1.98040439 L-5.97469563,-1.32572525 L-6.62945679,-1.33390874 L-6.62945679,-1.33390874 Z M-6.62945679,-2.65963399 L45.7514364,-3.31431313 L46.4061975,-3.30612964 L-5.97469563,-2.6514505 L-6.62945679,-2.65963399 L-6.62945679,-2.65963399 Z M-6.62945679,-3.98535924 L45.7514364,-4.64003838 L46.4061975,-4.63185489 L-5.97469563,-3.97717576 L-6.62945679,-3.98535924 L-6.62945679,-3.98535924 Z M-6.62945679,-5.3110845 L45.7514364,-5.96576363 L46.4061975,-5.95758014 L-5.97469563,-5.30290101 L-6.62945679,-5.3110845 L-6.62945679,-5.3110845 Z M-6.62945679,-6.63680975 L45.7514364,-7.29148888 L46.4061975,-7.2833054 L-5.97469563,-6.62862626 L-6.62945679,-6.63680975 L-6.62945679,-6.63680975 Z M-6.62945679,-7.962535 L45.7514364,-8.61721414 L46.4061975,-8.60903065 L-5.97469563,-7.95435151 L-6.62945679,-7.962535 L-6.62945679,-7.962535 Z M-6.62945679,2.64326701 L45.7514364,1.98858788 L46.4061975,1.99677137 L-5.97469563,2.6514505 L-6.62945679,2.64326701 L-6.62945679,2.64326701 Z M-6.62945679,3.96899227 L45.7514364,3.31431313 L46.4061975,3.32249662 L-5.97469563,3.97717576 L-6.62945679,3.96899227 L-6.62945679,3.96899227 Z M-6.62945679,5.29471752 L45.7514364,4.64003838 L46.4061975,4.64822187 L-5.97469563,5.30290101 L-6.62945679,5.29471752 L-6.62945679,5.29471752 Z M-6.62945679,6.62044277 L45.7514364,5.96576363 L46.4061975,5.97394712 L-5.97469563,6.62862626 L-6.62945679,6.62044277 L-6.62945679,6.62044277 Z M-6.62945679,7.94616802 L45.7514364,7.29148888 L46.4061975,7.29967237 L-5.97469563,7.95435151 L-6.62945679,7.94616802 L-6.62945679,7.94616802 Z M-6.62945679,9.27189327 L45.7514364,8.61721414 L46.4061975,8.62539763 L-5.97469563,9.28007676 L-6.62945679,9.27189327 L-6.62945679,9.27189327 Z M-6.62945679,10.5976185 L45.7514364,9.94293939 L46.4061975,9.95112288 L-5.97469563,10.605802 L-6.62945679,10.5976185 L-6.62945679,10.5976185 Z M-6.62945679,11.9233438 L45.7514364,11.2686646 L46.4061975,11.2768481 L-5.97469563,11.9315273 L-6.62945679,11.9233438 L-6.62945679,11.9233438 Z M-6.62945679,13.249069 L45.7514364,12.5943899 L46.4061975,12.6025734 L-5.97469563,13.2572525 L-6.62945679,13.249069 L-6.62945679,13.249069 Z M-6.62945679,15.9005195 L45.7514364,15.2458404 L46.4061975,15.2540239 L-5.97469563,15.908703 L-6.62945679,15.9005195 L-6.62945679,15.9005195 Z M-6.62945679,17.2262448 L45.7514364,16.5715656 L46.4061975,16.5797491 L-5.97469563,17.2344283 L-6.62945679,17.2262448 L-6.62945679,17.2262448 Z M-6.62945679,18.55197 L45.7514364,17.8972909 L46.4061975,17.9054744 L-5.97469563,18.5601535 L-6.62945679,18.55197 L-6.62945679,18.55197 Z M-6.62945679,19.8776953 L45.7514364,19.2230162 L46.4061975,19.2311996 L-5.97469563,19.8858788 L-6.62945679,19.8776953 L-6.62945679,19.8776953 Z M-6.62945679,21.2034205 L45.7514364,20.5487414 L46.4061975,20.5569249 L-5.97469563,21.211604 L-6.62945679,21.2034205 L-6.62945679,21.2034205 Z M-6.62945679,22.5291458 L45.7514364,21.8744667 L46.4061975,21.8826501 L-5.97469563,22.5373293 L-6.62945679,22.5291458 L-6.62945679,22.5291458 Z M-6.62945679,23.854871 L45.7514364,23.2001919 L46.4061975,23.2083754 L-5.97469563,23.8630545 L-6.62945679,23.854871 L-6.62945679,23.854871 Z M-6.62945679,25.1805963 L45.7514364,24.5259172 L46.4061975,24.5341006 L-5.97469563,25.1887798 L-6.62945679,25.1805963 L-6.62945679,25.1805963 Z M-6.62945679,26.5063215 L45.7514364,25.8516424 L46.4061975,25.8598259 L-5.97469563,26.514505 L-6.62945679,26.5063215 L-6.62945679,26.5063215 Z M-6.62945679,27.8320468 L45.7514364,27.1773677 L46.4061975,27.1855512 L-5.97469563,27.8402303 L-6.62945679,27.8320468 L-6.62945679,27.8320468 Z M-6.62945679,29.157772 L45.7514364,28.5030929 L46.4061975,28.5112764 L-5.97469563,29.1659555 L-6.62945679,29.157772 L-6.62945679,29.157772 Z M-6.62945679,30.4834973 L45.7514364,29.8288182 L46.4061975,29.8370017 L-5.97469563,30.4916808 L-6.62945679,30.4834973 L-6.62945679,30.4834973 Z M-6.62945679,14.5747943 L45.7514364,13.9201151 L46.4061975,13.9282986 L-5.97469563,14.5829778 L-6.62945679,14.5747943 L-6.62945679,14.5747943 Z" id="pattern" fill="#7323DC" opacity="0.1" mask="url(#mask-3)"></path>
                    <g id="text-overlay" opacity="0.25" mask="url(#mask-3)" font-family="Helvetica" font-weight="normal">
                        <g transform="translate(30.328334, -4.880497) rotate(-45.000000) translate(-30.328334, 4.880497) translate(-22.466988, -27.083013)">
                            <text id="HOUSING-HOUSING-HOUS" font-size="2.64385332">
                                <tspan x="0.681229961" y="9.14838905" fill="#404850">HOUSING HOUSING HOUSING HOUSING HOUSING HOUSING</tspan>
                            </text>
                            <text id="HOUSING-HOUSING-HOUS" font-size="2.64385332">
                                <tspan x="0.681229961" y="11.7998396" fill="#404850">HOUSING HOUSING HOUSING HOUSING HOUSING HOUSING</tspan>
                            </text>
                            <text id="HOUSING-HOUSING-HOUS" font-size="2.64385332">
                                <tspan x="0.681229961" y="14.4512901" fill="#404850">HOUSING HOUSING HOUSING HOUSING HOUSING HOUSING</tspan>
                            </text>
                            <text id="HOUSING-HOUSING-HOUS" font-size="2.64385332">
                                <tspan x="0.681229961" y="17.1027406" fill="#404850">HOUSING HOUSING HOUSING HOUSING HOUSING HOUSING</tspan>
                            </text>
                            <text id="HOUSING-HOUSING-HOUS" font-size="2.64385332">
                                <tspan x="0.681229961" y="19.7541911" fill="#404850">HOUSING HOUSING HOUSING HOUSING HOUSING HOUSING</tspan>
                            </text>
                            <text id="HOUSING-HOUSING-HOUS" font-size="2.64398147">
                                <tspan x="0.681229961" y="22.4056416" fill="#404850">HOUSING HOUSING HOUSING HOUSING HOUSING HOUSING</tspan>
                            </text>
                            <text id="HOUSING-HOUSING-HOUS" font-size="2.64385332">
                                <tspan x="0.681229961" y="25.0570921" fill="#404850">HOUSING HOUSING HOUSING HOUSING HOUSING HOUSING</tspan>
                            </text>
                            <text id="HOUSING-HOUSING-HOUS" font-size="2.64385332">
                                <tspan x="0.681229961" y="27.7085426" fill="#404850">HOUSING HOUSING HOUSING HOUSING HOUSING HOUSING</tspan>
                            </text>
                            <text id="HOUSING-HOUSING-HOUS" font-size="2.64385332">
                                <tspan x="0.681229961" y="30.3599931" fill="#404850">HOUSING HOUSING HOUSING HOUSING HOUSING HOUSING</tspan>
                            </text>
                            <text id="Type-something" font-size="2.64385332">
                                <tspan x="27.2491984" y="3" fill="#404850">HOUSING HOUSING HOUSING HOUSING HOUSING HOUSING</tspan>
                            </text>
                            <text id="HOUSING-HOUSING-HOUS" font-size="2.64385332">
                                <tspan x="0.681229961" y="33.0114436" fill="#404850">HOUSING HOUSING HOUSING HOUSING HOUSING HOUSING</tspan>
                            </text>
                            <text id="HOUSING-HOUSING-HOUS" font-size="2.64385332">
                                <tspan x="0.681229961" y="35.6628941" fill="#404850">HOUSING HOUSING HOUSING HOUSING HOUSING HOUSING</tspan>
                            </text>
                            <text id="HOUSING-HOUSING-HOUS" font-size="2.64385332">
                                <tspan x="0.681229961" y="38.3143446" fill="#404850">HOUSING HOUSING HOUSING HOUSING HOUSING HOUSING</tspan>
                            </text>
                            <text id="HOUSING-HOUSING-HOUS" font-size="2.64385332">
                                <tspan x="0.681229961" y="40.9657951" fill="#404850">HOUSING HOUSING HOUSING HOUSING HOUSING HOUSING</tspan>
                            </text>
                            <text id="HOUSING-HOUSING-HOUS" font-size="2.64385332">
                                <tspan x="0.681229961" y="43.6172456" fill="#404850">HOUSING HOUSING HOUSING HOUSING HOUSING HOUSING</tspan>
                            </text>
                        </g>
                    </g>
                    <g id="border" mask="url(#mask-3)" stroke-opacity="0.198256341" stroke="#404850" stroke-width="1.5999999">
                        <use mask="url(#mask-5)" xlink:href="#path-4"></use>
                    </g>
                    <rect id="border" mask="url(#mask-3)" x="3.3147284" y="3.31431313" width="26.5178272" height="19.8858788" rx="2.39999986"></rect>
                    <path d="M9.28123951,9.55363043 C9.28123951,8.67037307 10.0045023,7.95435151 10.8837893,7.95435151 L22.2634946,7.95435151 C23.1485585,7.95435151 23.8660445,8.66669655 23.8660445,9.55363043 L23.8660445,16.9608746 C23.8660445,17.844132 23.1427817,18.5601535 22.2634946,18.5601535 L10.8837893,18.5601535 C9.9987255,18.5601535 9.28123951,17.8478085 9.28123951,16.9608746 L9.28123951,9.55363043 Z M11.9330222,11.4111985 L11.9330222,15.1033065 C11.9330222,15.5442132 12.2873052,15.908703 12.7243355,15.908703 L20.4229485,15.908703 C20.8617595,15.908703 21.2142617,15.5481147 21.2142617,15.1033065 L21.2142617,11.4111985 C21.2142617,10.9702919 20.8599787,10.605802 20.4229485,10.605802 L12.7243355,10.605802 C12.2855244,10.605802 11.9330222,10.9663903 11.9330222,11.4111985 Z" id="center-rect" fill-opacity="0.190726902" fill="#9B89A9" mask="url(#mask-3)"></path>
                </g>
            </g>
        </g>
    </g>
</svg>